<svg width="197" height="14" viewBox="0 0 197 14" fill="none" xmlns="http://www.w3.org/2000/svg">
<path d="M0 9.19474C3.49516 8.56734 6.79897 7.87653 10.137 7.39931C15.1628 6.67847 20.2057 6.08781 25.2451 5.46708C27.4078 5.2001 29.5808 5.02656 31.74 4.75625C35.0165 4.34577 38.2862 3.86851 41.5661 3.46804C42.5193 3.35124 43.4999 3.45806 44.46 3.37129C48.8605 2.96749 53.2474 2.41348 57.6548 2.13315C63.9345 1.73602 70.2551 1.7861 76.5143 1.19541C89.7809 -0.0527149 103.071 0.0273966 116.365 0.00403594C122.683 -0.00931298 129.003 0.00400987 135.32 0.144174C140.599 0.260977 145.871 0.544638 151.146 0.808279C154.371 0.968466 157.593 1.19209 160.808 1.4624C165.649 1.86621 170.487 2.32005 175.329 2.77057C179.879 3.1944 184.441 3.55817 188.974 4.11883C191.667 4.44921 194.315 5.10664 197 5.86419C194.748 5.86419 192.473 6.04776 190.252 5.8008C188.67 5.62393 187.181 5.83416 185.647 5.87087C178.489 6.04775 171.324 5.8909 164.16 5.87087C161.522 5.86086 158.885 5.92091 156.247 5.89087C154.105 5.86751 151.963 5.7574 149.82 5.69733C145.96 5.5872 142.068 5.14336 138.245 5.4604C131.327 6.0344 124.439 5.15671 117.537 5.4604C110.909 5.75741 104.277 5.92762 97.6493 6.17791C93.3956 6.3381 89.142 6.53164 84.8918 6.73854C80.416 6.95546 75.9437 7.19574 71.4714 7.44604C68.2017 7.62958 64.9253 7.7831 61.6658 8.08012C58.1365 8.40049 54.6208 8.90106 51.0949 9.27149C47.569 9.64192 44.0363 9.93896 40.5104 10.296C36.9879 10.6531 33.4654 10.9969 29.9531 11.434C25.3612 12.0014 20.7933 12.7422 16.1946 13.2361C12.5389 13.6299 8.85917 13.8535 5.18635 13.9937C2.68883 14.0871 1.55795 13.1494 0.758471 10.85C0.618391 10.4462 0.40316 10.0658 0.00341992 9.19808L0 9.19474Z" fill="#854FED"/>
</svg>
