<svg width="298" height="241" viewBox="0 0 298 241" fill="none" xmlns="http://www.w3.org/2000/svg">
<path fill-rule="evenodd" clip-rule="evenodd" d="M245.821 43.3948L227.823 31.7105L221.671 42.4044L207.99 34.5195L227.397 0.790039L241.076 8.67501L235.176 18.9298L235.758 18.0312L254.411 30.1404L245.821 43.3948ZM71.8634 4.91309H56.0779V43.8346H71.8634V4.91309ZM282.215 91.6572C282.215 165.177 222.456 224.99 149.001 224.99C75.5459 224.99 15.7855 165.177 15.7855 91.6572H0C0 131.492 15.4995 168.942 43.641 197.109C71.7836 225.277 109.201 240.789 149 240.789C188.799 240.789 226.216 225.276 254.359 197.109C282.501 168.942 298 131.492 298 91.6572H282.215Z" fill="#FF7734"/>
</svg>
