<svg width="267" height="68" viewBox="0 0 267 68" fill="none" xmlns="http://www.w3.org/2000/svg">
<path d="M117.325 20.6787C114.198 21.5399 110.957 22.1252 107.964 23.3213C99.4753 26.7241 90.9104 30.0164 82.706 34.0282C74.4733 38.0559 66.6619 42.9273 58.6168 47.3525C56.7399 48.3874 54.6888 49.1058 52.7215 49.9726C47.5692 52.2327 42.4532 54.5981 37.2407 56.7103C34.9798 57.6268 32.4689 58.7362 30.4145 56.028C27.9075 52.7179 27.9394 50.1529 30.1997 46.8532C32.7235 43.1617 35.0324 39.3214 37.392 35.5129C37.7026 35.0152 37.7376 34.3516 38.0949 33.0625C33.619 35.3312 29.7092 37.1909 25.9178 39.268C19.2344 42.9267 12.639 46.741 5.97571 50.4351C3.96467 51.546 2.52159 50.6933 1.3499 48.8613C0.0807425 46.8652 1.12876 45.8986 2.66763 44.7939C13.2558 37.2306 24.9081 31.5649 36.5208 25.8703C41.2147 23.5666 46.2746 21.984 51.2139 20.2131C54.5259 19.0279 57.8703 21.0568 58.1144 24.431C58.1799 25.3548 57.5142 26.618 56.7767 27.2596C53.7167 29.9207 50.2623 32.1567 47.4159 35.0141C44.1495 38.2912 41.3241 42.0182 38.4206 45.6402C37.8195 46.3911 37.7165 47.5362 37.3843 48.4987C37.5651 48.7275 37.7474 48.9508 37.9281 49.1796C45.5348 45.2405 53.0895 41.2095 60.753 37.3875C70.2345 32.6572 79.735 27.9442 89.3591 23.5156C95.7344 20.5817 102.192 17.6944 108.879 15.6334C116.713 13.2169 124.827 11.7003 132.826 9.82978C133.984 9.56097 135.204 9.56533 136.382 9.37365C139.261 8.9143 141.863 10.4635 142.333 13.2152C142.589 14.6981 142.486 15.885 140.557 16.9172C127.589 23.8687 114.914 31.3124 104.51 41.9712C100.218 46.3701 95.944 50.7918 91.6901 55.2251C91.4055 55.5216 91.3751 56.0613 91.2594 56.3926C110.95 48.2835 130.379 39.6552 150.27 32.281C170.017 24.9561 190.237 18.8884 210.394 11.9514C208.423 12.0603 206.443 12.3279 204.481 12.2309C203.194 12.1664 201.088 11.8806 200.829 11.1595C200.083 9.08195 200.054 6.73837 199.862 4.48679C199.848 4.32208 200.742 3.93237 201.236 3.89052C206.135 3.49058 211.04 3.21756 215.934 2.75062C221.764 2.19174 227.567 1.21433 233.408 0.89669C240.197 0.531965 247.016 0.551042 253.814 0.689391C257.007 0.751951 260.214 1.31912 263.346 1.99021C264.301 2.19543 265.393 3.34987 265.779 4.32072C267.023 7.45969 264.187 12.4289 260.94 13.4417C248.783 17.2338 237.702 23.4154 226.36 29.036C218.649 32.8569 210.716 36.2348 202.773 39.5386C201.939 39.8852 199.998 38.6564 199.184 37.6622C198.383 36.6837 197.579 35.1381 199.668 33.9596C206.477 30.1271 213.23 26.1957 219.919 22.1512C222.587 20.5374 225.016 18.5415 226.948 17.1584C225.655 17.396 223.302 17.6791 221.034 18.2779C209.627 21.295 198.2 24.235 186.87 27.5354C179.855 29.577 172.951 32.0546 166.098 34.6059C151.665 39.9897 137.208 45.3129 122.948 51.1259C114.222 54.6773 105.872 59.1493 97.3003 63.0891C93.943 64.6311 90.4762 65.9879 86.9629 67.1472C85.7048 67.5611 83.576 67.7219 82.901 66.9986C81.4247 65.4277 79.0856 63.6177 80.3368 61.0154C81.7819 58.014 83.42 54.9827 85.5563 52.4529C90.2624 46.8818 95.08 41.3596 100.325 36.3134C105.181 31.6417 110.653 27.6055 115.851 23.2908C116.501 22.7501 117.139 22.1881 117.78 21.6388L117.336 20.6818L117.325 20.6787Z" fill="#854FED"/>
</svg>
