<svg width="172" height="14" viewBox="0 0 172 14" fill="none" xmlns="http://www.w3.org/2000/svg">
<path d="M7.07395 12.5869C9.29527 12.2993 11.6967 12.1843 13.9781 12.0693C15.2989 12.0117 16.5596 11.983 17.8804 11.9542C19.7415 11.8967 21.6026 11.8679 23.5238 11.8679C27.1259 11.8392 30.668 11.8104 34.2702 11.8104C41.4145 11.8104 48.5587 11.7817 55.763 11.6091C63.2075 11.4366 70.5919 11.264 78.0363 11.0914C85.0605 10.9189 92.0847 10.7463 99.169 10.6313C106.193 10.4875 113.277 10.3725 120.302 10.1712C127.506 9.94108 134.71 9.82604 141.914 9.73977C145.337 9.68225 148.759 9.62473 152.181 9.45217C153.982 9.3659 155.723 9.25086 157.524 9.13582C159.265 9.02078 161.006 8.96327 162.747 8.87699C164.368 8.79071 165.929 8.81947 167.55 8.87699C168.69 8.81947 169.591 8.53188 170.191 8.04297C170.492 7.72662 170.852 7.43903 171.152 7.12268C171.752 6.31742 172.052 5.4834 171.992 4.62062C171.992 3.75785 171.752 2.92383 171.152 2.11857C170.852 1.80222 170.492 1.51463 170.191 1.19828C169.591 0.709368 168.751 0.450535 167.55 0.364258C166.649 0.393017 165.809 0.450535 164.908 0.479295C164.128 0.508054 163.287 0.508054 162.507 0.508054C160.766 0.508054 159.085 0.536813 157.344 0.565572C153.742 0.623091 150.199 0.738128 146.597 0.795646C139.633 0.881924 132.669 0.910683 125.765 1.112C122.043 1.22703 118.32 1.34207 114.598 1.42835C111.236 1.51463 107.814 1.57215 104.452 1.62966C97.2478 1.7447 90.0435 1.91726 82.8392 2.08981C75.755 2.26237 68.6107 2.43492 61.5265 2.60748C57.6241 2.69376 53.6618 2.80879 49.7594 2.89507C46.2173 2.98135 42.7352 2.98135 39.1931 3.01011C31.9888 3.03887 24.7845 3.06763 17.5802 3.26894C15.7791 3.32646 14.0381 3.38398 12.2971 3.49901C10.8562 3.58529 9.41534 3.70033 8.03452 3.84412C6.95387 3.95916 5.87323 4.13172 4.85262 4.30427C4.25226 4.39055 3.6519 4.56311 3.11158 4.73566C2.03093 5.13829 1.3105 5.65596 0.890251 6.28866C-0.0703225 7.49655 -0.190394 8.93451 0.229857 10.1999C0.47 10.9477 1.01032 11.6666 1.85083 12.2993C2.27108 12.5007 2.69133 12.702 3.11158 12.9033C4.07215 13.1909 5.03273 13.1909 5.93326 12.9033C6.17341 12.7882 6.65369 12.6732 7.07395 12.5869Z" fill="#854FED"/>
</svg>
