<svg width="45" height="61" viewBox="0 0 45 61" fill="none" xmlns="http://www.w3.org/2000/svg">
<path d="M40.2174 60.6158C31.7968 48.3963 33.7439 49.3059 24.1211 38.1174C22.3059 42.4339 22.8268 41.97 22.3059 42.4339C21.1669 43.4491 19.6732 44.0713 18.2801 44.7744C18.1782 44.8258 17.6988 44.3506 17.5451 44.0434C16.0303 40.9932 14.595 37.9062 13.0386 34.8766C11.1827 31.2679 9.0655 27.7843 7.36136 24.1066C5.38348 19.8309 3.64359 15.4367 1.98554 11.0253C1.20536 8.95437 0.74457 6.74388 0.369992 4.5558C0.255952 3.88795 0.715039 2.88825 1.23777 2.38986C2.92887 0.780972 3.29861 0.0700342 5.70989 2.16885C15.3081 8.91717 20.6831 15.5457 27.1978 21.3991C31.6265 25.3786 35.8286 29.6155 39.9857 33.8773C40.4222 34.3252 40.1336 35.8904 39.7059 36.6705C39.2848 37.4378 33.5604 37.7476 33.5604 37.7476L29.6109 35.5305C32.7212 39.5203 42.2702 54.4409 44.994 58.2854L40.2174 60.6158Z" fill="#854FED"/>
</svg>
