<svg width="298" height="240" viewBox="0 0 298 240" fill="none" xmlns="http://www.w3.org/2000/svg">
<path fill-rule="evenodd" clip-rule="evenodd" d="M245.822 42.6047L227.824 30.9204L221.672 41.6144L207.991 33.7294L227.398 0L241.077 7.88497L235.177 18.1398L235.759 17.2412L254.411 29.3503L245.822 42.6047ZM71.8642 4.12305H56.0786V43.0446H71.8642V4.12305ZM15.7845 239.999C15.7845 166.479 75.5439 106.667 148.999 106.667C222.454 106.667 282.214 166.479 282.214 239.999H298C298 200.165 282.5 162.714 254.359 134.547C226.216 106.379 188.799 90.8672 149 90.8672C109.201 90.8672 71.7836 106.38 43.641 134.547C15.4985 162.714 3.8147e-06 200.165 0 239.999H15.7845Z" fill="#FF7734"/>
</svg>
