<svg width="108" height="108" viewBox="0 0 108 108" fill="none" xmlns="http://www.w3.org/2000/svg">
<path d="M97.875 70.8751V84.3751M10.125 84.3751V37.1251C10.125 35.3349 10.8362 33.618 12.102 32.3521C13.3679 31.0862 15.0848 30.3751 16.875 30.3751H33.75M87.75 37.1251C87.5098 40.0277 86.1349 42.7185 83.9235 44.614C81.7122 46.5094 78.8427 47.4566 75.9375 47.2501C73.0323 47.4566 70.1628 46.5094 67.9515 44.614C65.7401 42.7185 64.3652 40.0277 64.125 37.1251M65.628 84.3751C64.4567 86.4251 62.7643 88.1291 60.7222 89.3143C58.6802 90.4994 56.3611 91.1236 54 91.1236C51.6389 91.1236 49.3198 90.4994 47.2778 89.3143C45.2357 88.1291 43.5433 86.4251 42.372 84.3751H3.375V91.1251C3.375 94.7055 4.79732 98.1393 7.32906 100.671C9.8608 103.203 13.2946 104.625 16.875 104.625H91.125C94.7054 104.625 98.1392 103.203 100.671 100.671C103.203 98.1393 104.625 94.7055 104.625 91.1251V84.3751H65.628ZM83.961 4.54958C78.6662 2.96734 73.0266 2.95108 67.7228 4.50276C62.4189 6.05444 57.6774 9.10777 54.0703 13.2943C50.4632 17.4809 48.1446 22.6218 47.3944 28.0968C46.6441 33.5718 47.4941 39.147 49.842 44.1496L40.5585 63.0001L61.8075 57.1951C65.3376 59.1724 69.2454 60.382 73.2753 60.7449C77.3051 61.1078 81.3662 60.6157 85.1928 59.3009C89.0193 57.9861 92.5252 55.8781 95.4809 53.1149C98.4366 50.3518 100.776 46.9957 102.345 43.2662C103.914 39.5367 104.678 35.518 104.587 31.4728C104.496 27.4277 103.552 23.4474 101.817 19.7922C100.081 16.1371 97.5939 12.8896 94.5169 10.2621C91.4399 7.63468 87.8428 5.6865 83.961 4.54508V4.54958ZM65.8125 20.2501C65.4787 20.2501 65.1525 20.349 64.875 20.5345C64.5975 20.7199 64.3812 20.9834 64.2535 21.2918C64.1257 21.6002 64.0923 21.9394 64.1574 22.2668C64.2225 22.5941 64.3833 22.8948 64.6193 23.1308C64.8553 23.3668 65.1559 23.5275 65.4833 23.5927C65.8106 23.6578 66.1499 23.6243 66.4583 23.4966C66.7666 23.3689 67.0302 23.1526 67.2156 22.8751C67.401 22.5976 67.5 22.2713 67.5 21.9376C67.5 21.49 67.3222 21.0608 67.0057 20.7443C66.6893 20.4279 66.2601 20.2501 65.8125 20.2501ZM86.0625 20.2501C85.7287 20.2501 85.4025 20.349 85.125 20.5345C84.8475 20.7199 84.6312 20.9834 84.5035 21.2918C84.3757 21.6002 84.3423 21.9394 84.4074 22.2668C84.4725 22.5941 84.6333 22.8948 84.8693 23.1308C85.1053 23.3668 85.4059 23.5275 85.7333 23.5927C86.0606 23.6578 86.3999 23.6243 86.7083 23.4966C87.0166 23.3689 87.2802 23.1526 87.4656 22.8751C87.651 22.5976 87.75 22.2713 87.75 21.9376C87.75 21.49 87.5722 21.0608 87.2557 20.7443C86.9393 20.4279 86.5101 20.2501 86.0625 20.2501Z" stroke="#1B102F" stroke-width="1.5" stroke-linecap="round" stroke-linejoin="round"/>
</svg>
