<svg width="108" height="108" viewBox="0 0 108 108" fill="none" xmlns="http://www.w3.org/2000/svg">
<path d="M78.2415 75.375C75.9798 70.8855 72.5157 67.1123 68.2355 64.4759C63.9553 61.8395 59.027 60.4436 54 60.4436C48.973 60.4436 44.0447 61.8395 39.7645 64.4759C35.4843 67.1123 32.0202 70.8855 29.7585 75.375M104.625 44.7165C104.627 59.0744 99.5434 72.9689 90.2762 83.9355C81.009 94.9022 68.1571 102.232 54 104.625C39.8429 102.232 26.991 94.9022 17.7238 83.9355C8.45655 72.9689 3.37306 59.0744 3.375 44.7165V10.125C3.375 8.33479 4.08616 6.6179 5.35203 5.35203C6.6179 4.08616 8.33479 3.375 10.125 3.375H97.875C99.6652 3.375 101.382 4.08616 102.648 5.35203C103.914 6.6179 104.625 8.33479 104.625 10.125V44.7165ZM69.1875 38.8125C69.1875 47.2003 62.3878 54 54 54C45.6122 54 38.8125 47.2003 38.8125 38.8125C38.8125 30.4247 45.6122 23.625 54 23.625C62.3878 23.625 69.1875 30.4247 69.1875 38.8125Z" stroke="#1B102F" stroke-width="1.5" stroke-linecap="round" stroke-linejoin="round"/>
</svg>
