<svg width="108" height="108" viewBox="0 0 108 108" fill="none" xmlns="http://www.w3.org/2000/svg">
<path d="M95.9533 30.375C94.6979 22.9069 90.8636 16.1154 85.1178 11.1823C79.372 6.24931 72.0784 3.48705 64.5063 3.37627C56.9342 3.26549 49.5629 5.8132 43.6752 10.576C37.7876 15.3389 33.7563 22.0153 32.2828 29.4435C29.5668 28.1089 26.584 27.4062 23.5579 27.388C20.5317 27.3698 17.5406 28.0366 14.8088 29.3386C12.077 30.6405 9.67513 32.5437 7.78327 34.9057C5.89141 37.2676 4.55857 40.0271 3.88459 42.9773C3.21062 45.9275 3.21299 48.992 3.89152 51.9411C4.57005 54.8903 5.90716 57.6477 7.80266 60.0067C9.69817 62.3658 12.1029 64.2653 14.8368 65.563C17.5706 66.8607 20.5627 67.5229 23.5888 67.5H45.0583M74.2498 91.125L92.4208 57.8115C93.0413 56.6746 93.3216 55.3832 93.2282 54.0914C93.1349 52.7996 92.6718 51.5619 91.8943 50.526L79.6498 34.2C79.0211 33.3617 78.2058 32.6813 77.2685 32.2127C76.3313 31.744 75.2977 31.5 74.2498 31.5C73.2019 31.5 72.1684 31.744 71.2312 32.2127C70.2939 32.6813 69.4786 33.3617 68.8498 34.2L56.6053 50.526C55.8279 51.5619 55.3648 52.7996 55.2715 54.0914C55.1781 55.3832 55.4584 56.6746 56.0788 57.8115L74.2498 91.125ZM74.2498 91.125V96.8805C74.2511 98.2819 74.6324 99.6568 75.3532 100.859C76.0739 102.061 77.1071 103.044 78.3427 103.706C79.5783 104.367 80.9701 104.681 82.3699 104.614C83.7697 104.546 85.1252 104.101 86.2918 103.325L90.2023 100.719C91.4746 99.8697 92.9701 99.4164 94.4998 99.4164C96.0296 99.4164 97.5251 99.8697 98.7973 100.719L104.647 104.603" stroke="#1B102F" stroke-width="1.6875" stroke-linecap="round" stroke-linejoin="round"/>
</svg>
