<svg width="602" height="62" viewBox="0 0 602 62" fill="none" xmlns="http://www.w3.org/2000/svg">
<path d="M20.4847 48.1762C22.0735 47.0483 23.6624 45.9203 25.2512 44.5668C26.84 43.2133 28.6559 42.0854 30.2447 40.7319C34.1033 37.5738 37.9619 34.4156 41.8205 31.2574C40.9126 32.6109 39.7777 33.9644 38.8698 35.3179C37.9619 36.6714 37.054 37.7993 35.9191 39.1528C35.4652 39.8296 34.7842 40.5063 34.3303 41.1831C33.6494 41.8598 33.1954 42.7622 32.9684 43.6645C32.5145 44.5668 32.2875 45.2436 32.0605 46.1459C31.6066 47.4994 32.0605 49.3041 33.1954 50.2064C33.6494 50.6576 34.3303 51.1088 35.0112 51.3343C35.6922 51.5599 36.6001 51.5599 37.281 51.3343C38.1889 51.1088 39.0968 51.1088 40.0047 50.8832C40.6856 50.6576 41.1396 50.432 41.8205 50.2064C42.5015 49.9808 43.1824 49.7553 43.6363 49.3041C45.6791 48.4018 47.495 47.0483 49.5378 45.6948C51.5805 44.3413 53.8503 42.9878 55.8931 41.4087C58.1629 39.8296 60.2057 38.2505 62.2485 36.6714C64.2913 35.3179 66.1071 33.7388 67.9229 32.1598C67.6959 32.3854 67.4689 32.6109 67.4689 32.8365C65.6531 35.0923 63.8373 37.5738 62.0215 39.8296C60.8866 41.1831 59.7517 42.5366 58.8438 43.8901C58.3899 44.5668 57.9359 45.4692 57.482 46.3715C57.255 47.0483 57.028 47.725 57.028 48.4018C57.028 49.0785 56.801 49.7553 56.574 50.432C56.3471 51.5599 56.3471 52.4623 57.028 53.3646C57.482 54.0413 58.3899 54.9437 59.2978 55.1692C60.6596 55.3948 62.0215 55.6204 63.6103 55.846C64.2913 55.846 64.9722 56.0716 65.6531 55.846C66.3341 55.846 67.015 55.6204 67.6959 55.6204C69.0578 55.3948 70.1927 54.9437 71.3276 54.4925C72.6894 54.0413 73.8243 53.3646 74.9592 52.9134C79.9527 50.432 84.9462 47.4994 89.7127 44.5668C91.9825 43.2133 94.0253 41.6343 96.295 40.2808C94.9332 42.0854 93.3443 43.8901 91.9825 45.6948C91.0746 46.8227 90.1667 47.9506 89.2588 49.0785C88.3508 50.2064 87.6699 51.1088 87.216 52.4623C86.762 53.5902 86.535 54.7181 86.308 55.846C86.0811 57.4251 86.308 58.7786 87.4429 59.9065C87.8969 60.3577 88.5778 60.8088 89.2588 61.0344C89.9397 61.26 90.8476 61.26 91.5285 61.0344C91.9825 61.0344 92.4364 60.8088 92.6634 60.8088C94.0253 60.5832 95.3871 60.3577 96.522 60.1321C97.8839 59.9065 99.2457 59.4553 100.608 58.7786C103.331 57.6507 105.828 56.2972 108.325 54.9437C113.318 52.0111 118.085 48.8529 122.851 45.6948C123.532 45.2436 124.213 44.7924 124.894 44.1157C124.894 44.1157 124.894 44.3413 124.667 44.3413C124.213 45.018 123.759 45.9203 123.532 46.5971C123.078 47.9506 123.532 49.3041 123.759 50.6576C124.213 52.9134 126.71 54.0413 128.98 53.5902C130.342 53.139 131.703 52.9134 133.065 52.4623C134.654 52.0111 136.243 51.3343 137.832 50.432C141.01 49.0785 143.96 47.0483 146.684 45.2436C148.954 43.8901 150.997 42.311 153.266 40.9575C157.579 38.2505 161.664 35.5435 165.977 32.6109C168.247 31.0319 170.744 29.2272 173.013 27.6481C172.105 28.776 170.971 30.1295 170.063 31.2574C169.609 31.7086 169.155 32.3853 168.701 32.8365C167.566 33.9644 166.658 35.0923 165.75 36.2203C164.842 37.5738 164.615 39.1528 164.615 40.7319C164.615 41.4087 164.842 42.0854 164.842 42.7622C164.842 42.9878 165.069 43.4389 165.069 43.6645C165.296 44.3413 165.523 44.7924 165.75 45.4692C165.977 46.1459 166.431 46.8227 166.885 47.4994C167.566 48.1762 168.928 48.8529 170.063 48.8529C172.559 48.6273 175.283 48.4018 178.007 47.9506C180.504 47.4994 183 46.5971 185.27 45.4692C190.037 43.4389 194.576 40.9575 199.116 38.2505C202.293 36.4458 205.471 34.4156 208.649 32.3853C207.968 33.2877 207.06 33.9644 206.379 34.8668C205.017 36.4458 203.428 38.0249 202.066 39.604C200.931 40.7319 200.024 41.8598 198.889 42.9878C197.3 44.7924 195.938 46.8227 194.576 48.8529C193.441 50.6576 194.122 53.8158 196.165 54.7181C196.846 54.9437 197.3 55.3948 197.981 55.6204C198.662 55.846 199.343 56.0716 200.024 56.2972C201.385 56.5227 202.747 56.2972 204.336 56.0716C205.698 55.846 207.06 55.1692 208.195 54.4925C209.784 53.8158 211.372 52.9134 212.734 52.0111C214.096 51.3343 215.231 50.6576 216.593 49.9808C217.955 49.3041 219.09 48.6273 220.452 47.725C222.721 46.3715 224.991 45.018 227.034 43.6645C227.715 43.2133 228.396 42.7622 228.85 42.311C228.623 42.9878 228.169 43.4389 227.942 44.1157C227.261 45.4692 227.034 47.0483 227.942 48.4018C228.85 49.7553 230.212 50.432 231.8 50.432C232.935 50.432 233.843 50.6576 234.751 50.6576C235.432 50.6576 236.113 50.432 236.794 50.432C237.475 50.2064 238.156 50.2064 238.61 49.9808C239.972 49.5297 241.106 48.8529 242.468 48.4018C243.603 47.725 244.965 47.0483 246.1 46.3715C248.597 45.018 250.866 43.4389 253.363 42.0854C255.86 40.5063 258.584 38.9273 261.08 37.3482C266.301 33.9644 271.294 30.3551 276.515 26.9714C277.423 26.2946 278.104 25.8434 279.012 25.1667C278.785 25.3923 278.558 25.6179 278.558 25.8434C276.742 28.0993 274.699 30.5807 272.883 33.0621C271.975 34.19 271.067 35.5435 269.933 36.6714C268.798 38.2505 267.436 39.604 266.301 40.9575C265.847 41.6343 265.166 42.5366 264.712 43.4389C264.031 44.5668 263.577 45.9203 263.123 47.2738C262.669 48.1762 263.123 49.5297 263.577 50.432C264.258 51.5599 265.62 52.4623 267.209 52.4623C267.89 52.4623 268.571 52.4623 269.025 52.4623C269.706 52.4623 270.386 52.4623 270.84 52.4623C272.429 52.4623 274.018 52.0111 275.607 51.5599C276.969 51.1088 278.104 50.6576 279.466 49.9808C281.054 49.3041 282.416 48.6273 284.005 47.725C289.68 44.5668 295.127 41.4087 300.574 38.0249C305.795 34.6412 311.015 31.2574 316.236 27.6481C318.733 25.8434 321.229 24.0388 323.726 22.4597L323.499 22.6853C322.137 24.4899 320.548 26.2946 319.187 28.0993C318.279 29.2272 317.371 30.3551 316.463 31.483C316.009 31.9342 315.782 32.3853 315.555 32.8365C315.328 33.2877 315.101 33.9644 314.874 34.4156C314.647 34.8668 314.647 35.5435 314.874 36.2203C314.874 37.1226 315.328 37.7993 315.555 38.7017C316.236 40.5063 318.052 41.8598 320.094 41.1831C322.591 40.5063 325.088 39.8296 327.585 39.1528C330.081 38.4761 332.351 37.3482 334.621 36.2203C337.572 34.8668 340.522 33.2877 343.246 31.9342C346.878 30.1295 350.282 28.3249 353.914 26.2946C357.319 24.4899 360.496 22.6853 363.901 20.8806C362.993 21.7829 361.858 22.6853 360.95 23.5876C358.227 26.2946 355.276 28.776 352.552 31.483C349.375 34.4156 346.424 37.3482 343.246 40.2808C341.43 42.0854 339.614 43.8901 337.799 45.6948C336.664 46.8227 335.302 47.9506 334.167 49.0785C333.713 49.5297 333.486 49.9808 333.259 50.432C333.032 50.8832 332.805 51.3343 332.578 52.0111C332.351 52.4623 332.351 53.139 332.351 53.5902C332.351 54.4925 332.578 55.1693 332.578 56.0716C332.578 56.9739 332.805 57.8762 333.713 58.553C334.621 59.4553 335.983 59.6809 337.118 59.4553C339.161 59.0042 341.43 58.553 343.473 58.1018C345.516 57.6507 347.559 56.9739 349.602 56.0716C353.914 54.2669 358.227 52.2367 362.312 49.9808C364.128 49.0785 366.171 47.9506 367.987 46.8227C369.349 45.9203 370.937 45.018 372.299 44.3413C373.888 43.4389 375.477 42.5366 377.293 41.4087C376.839 41.8598 376.158 42.311 375.704 42.7622C375.023 43.2133 374.342 43.6645 373.888 44.3413C373.434 44.7924 373.207 45.2436 372.753 45.6948C372.526 46.1459 372.299 46.5971 372.072 47.2738C371.845 47.9506 371.845 48.8529 372.072 49.5297C372.072 50.2064 372.299 50.6576 372.526 51.1088C373.207 52.4623 374.342 53.5902 375.931 54.2669C377.974 54.9437 380.016 54.7181 382.286 54.0413C383.421 53.8157 384.556 53.139 385.691 52.6878C386.826 52.2367 387.734 51.7855 388.869 51.3343C392.046 49.9808 395.224 48.6273 398.402 47.2738C401.806 45.6948 404.984 43.8901 408.162 42.311C410.204 41.1831 412.247 40.0552 414.29 38.9273C418.83 36.4458 423.369 33.7388 427.909 31.0319C430.859 29.2272 434.037 27.1969 436.988 25.3923C435.853 26.5202 434.945 27.8737 433.81 29.0016C432.675 30.1295 431.54 31.483 430.405 32.6109C429.27 33.9644 428.136 35.3179 427.001 36.6714C425.866 38.0249 425.185 39.604 424.277 41.1831C422.915 43.4389 424.05 46.5971 426.774 47.2738C427.682 47.4994 428.59 47.725 429.724 47.9506C430.405 48.1762 431.086 48.1762 431.767 48.1762C432.448 48.1762 433.129 47.9506 433.81 47.9506C435.172 47.725 436.307 47.2738 437.669 46.5971C438.803 46.1459 440.165 45.4692 441.3 44.7924C443.57 43.6645 445.613 42.5366 447.883 41.4087C450.606 40.0552 453.103 38.4761 455.827 36.897C458.097 35.5435 460.366 34.19 462.636 32.8365C462.409 33.0621 462.182 33.2877 461.955 33.5133C460.82 34.6412 459.685 35.9947 458.551 37.3482C457.416 38.7017 456.508 40.2808 456.508 42.0854C456.508 43.2133 456.962 43.8901 457.416 44.7924C457.643 45.4692 458.777 46.5971 459.458 46.8227C459.685 46.8227 459.912 47.0483 459.912 47.0483C460.593 47.4994 461.274 47.725 462.182 47.725C463.09 47.725 463.998 47.725 464.679 47.4994C466.495 47.0483 468.084 46.3715 469.672 45.4692C470.58 45.018 471.488 44.5668 472.396 44.1157C473.304 43.6645 474.439 42.9878 475.347 42.5366C477.163 41.4087 479.205 40.2808 481.021 39.1528C481.702 38.7017 482.383 38.2505 483.064 37.7993C482.61 38.2505 482.156 38.9273 481.702 39.3784C481.021 40.2808 480.113 41.1831 479.432 42.0854C478.298 43.4389 477.163 44.5668 476.028 45.9203C474.893 47.2738 473.985 48.6273 473.077 49.9808C472.396 50.8832 472.396 52.2367 472.623 53.139C472.85 54.0413 473.531 55.1692 474.439 55.6204C474.893 55.846 475.347 56.0716 476.028 56.2972C476.709 56.5227 477.163 56.7483 477.844 56.9739C478.525 57.1995 478.978 57.1995 479.659 57.1995C480.794 57.1995 481.702 56.9739 482.61 56.9739C484.199 56.7483 486.015 56.0716 487.604 55.3948C489.192 54.7181 490.781 53.8157 492.37 53.139C493.732 52.4623 495.094 52.0111 496.456 51.3343C498.045 50.6576 499.86 49.7553 501.449 48.8529C504.173 47.4994 506.897 46.1459 509.393 44.5668C511.436 43.4389 513.252 42.311 515.295 41.1831C515.068 41.4087 515.068 41.6343 514.841 41.8598C513.706 43.4389 514.16 45.9203 515.522 47.2738C516.657 48.4018 518.019 49.5297 519.607 50.2064C520.515 50.432 521.423 50.432 522.331 50.432C523.693 50.432 524.828 49.9808 526.19 49.5297C527.098 49.3041 528.006 48.8529 528.686 48.4018C529.594 47.9506 530.729 47.725 531.637 47.2738C533.907 46.3715 535.95 45.2436 538.219 43.8901C541.397 42.0854 544.575 40.0552 547.753 38.0249C547.526 38.7017 547.526 39.3784 547.526 40.0552C547.526 40.7319 547.753 41.6343 547.979 42.311C548.206 42.7622 548.206 42.9878 548.433 43.4389C548.66 43.8901 549.114 44.3413 549.341 44.7924C550.022 45.4692 551.157 45.9203 552.065 46.1459C552.519 46.1459 552.973 46.1459 553.2 46.3715C553.654 46.3715 554.335 46.3715 554.789 46.3715C555.924 46.1459 556.832 46.1459 557.74 45.6948C561.371 44.7924 565.003 42.9878 568.407 41.1831C572.266 39.1528 576.125 36.897 579.756 34.6412C582.48 33.0621 584.977 31.2574 587.7 29.6784C587.927 29.4528 588.154 29.4528 588.381 29.2272C588.381 29.4528 588.154 29.6784 588.154 29.6784C586.793 31.9342 587.7 35.0923 589.97 36.4458C591.105 37.1226 592.467 37.3482 593.829 36.897C594.964 36.6714 596.326 35.7691 596.78 34.6412C597.687 32.3853 598.595 30.3551 599.503 28.0993C599.957 27.1969 600.184 26.069 600.638 25.1667C600.865 24.4899 601.092 24.0388 601.319 23.362C601.773 22.0085 602 20.4294 602 18.8504C602 17.7224 601.546 16.5945 600.865 15.9178C599.73 14.7899 598.141 14.3387 596.78 14.7899C595.418 15.241 594.056 15.6922 592.921 16.1434C591.786 16.5945 590.878 17.4969 589.743 18.1736C588.608 18.8504 587.7 19.5271 586.566 19.9783C584.977 21.1062 583.161 22.0085 581.572 23.1364C579.302 24.4899 577.033 25.8434 574.99 27.1969C572.493 28.776 569.996 30.1295 567.273 31.7086C565.911 32.3853 564.776 33.0621 563.414 33.7388C562.733 34.19 562.052 34.4156 561.371 34.8668C563.187 32.6109 565.23 30.3551 567.046 28.0993C569.996 24.7155 572.947 21.5574 575.671 18.1736C576.125 17.7224 576.579 17.0457 576.806 16.3689C577.033 15.241 577.033 14.1131 576.352 13.2108C575.898 12.3084 574.763 11.6317 573.855 11.1805C572.947 10.9549 571.358 10.9549 570.677 11.6317C566.138 15.0154 561.371 18.3992 556.832 21.5574C554.108 23.5876 551.157 25.3923 548.433 27.4225C545.029 29.6784 541.624 31.9342 537.993 34.19C535.723 35.5435 533.453 36.897 531.183 38.0249C532.091 37.3482 532.772 36.4458 533.68 35.7691C535.496 33.9644 537.312 32.3853 539.127 30.8063C543.44 26.9714 547.526 22.9109 551.838 19.3015C552.065 19.0759 552.292 18.8504 552.519 18.6248C554.108 17.0457 554.108 14.3387 552.519 12.7596C551.838 12.0829 550.703 11.6317 549.568 11.6317C548.433 11.6317 547.526 12.0829 546.618 12.7596C546.391 12.9852 546.164 13.2108 545.937 13.4364C543.667 15.0154 541.17 16.5945 538.9 17.948C537.085 19.0759 535.042 20.4294 533.226 21.5574C529.14 24.0388 525.282 26.5202 521.196 29.0016C520.061 29.6784 518.699 30.3551 517.565 31.0319C514.614 32.6109 511.89 34.4156 508.939 35.9947C506.67 37.3482 504.4 38.7017 501.903 39.8296C498.952 41.4087 496.002 42.9878 493.051 44.3413C491.689 45.018 490.327 45.4692 489.192 46.1459C488.285 46.5971 487.15 47.0483 486.242 47.4994C487.377 46.1459 488.511 44.7924 489.873 43.4389C491.235 41.8598 492.597 40.2808 493.959 38.7017C496.002 36.4458 498.045 34.4156 499.86 32.1598C501.449 30.5807 503.038 28.776 504.627 27.1969C505.762 25.8434 506.897 24.4899 508.032 23.1364C508.939 22.0085 509.847 20.655 510.755 19.3015C511.436 18.1736 511.436 16.5945 510.755 15.4666C510.301 14.7899 509.847 14.3387 509.393 14.1131C508.485 13.6619 507.351 13.4364 506.443 13.6619C505.762 13.8875 505.081 14.1131 504.627 14.3387C503.719 14.7899 503.038 15.241 502.13 15.6922C501.222 16.3689 500.314 17.0457 499.406 17.4969C497.818 18.6248 496.456 19.5271 494.867 20.655C492.597 22.2341 490.1 23.8132 487.831 25.3923C485.107 27.1969 482.156 29.0016 479.432 30.8063C477.844 31.7086 476.482 32.6109 474.893 33.5133C474.666 33.5133 474.666 33.7388 474.439 33.7388C476.255 31.9342 477.844 30.1295 479.659 28.3249C481.248 26.5202 483.064 24.7155 484.653 22.9109C486.015 21.5574 487.15 20.2039 488.511 18.8504C489.873 17.2713 491.235 15.6922 492.824 14.1131C493.278 13.6619 493.732 12.9852 493.959 12.3084C494.186 11.1805 494.186 10.0526 493.505 9.15028C492.597 7.5712 490.554 6.66887 488.738 7.34562C488.058 7.5712 487.15 7.79678 486.469 8.24795C485.334 8.9247 484.199 9.60145 483.291 10.2782C482.61 10.7294 481.702 11.1805 481.021 11.6317C479.432 12.534 477.844 13.6619 476.255 14.5643C473.304 16.3689 470.353 18.3992 467.403 20.2039C463.771 22.4597 459.912 24.7155 456.281 26.9714C453.33 28.776 450.379 30.3551 447.429 32.1598C445.159 33.5133 442.889 34.6412 440.392 35.7691C439.484 36.2203 438.577 36.6714 437.442 37.3482C438.123 36.6714 438.577 35.9947 439.257 35.3179C440.165 34.19 441.3 33.0621 442.208 31.9342C443.57 30.3551 444.932 28.776 446.294 27.1969C448.337 24.7155 450.379 22.4597 452.422 19.9783C453.33 18.8504 454.238 17.7224 455.373 16.8201C456.508 15.6922 457.416 14.5643 458.324 13.2108C459.231 12.0829 459.685 10.7294 460.139 9.37587C460.366 8.02237 460.139 6.44328 459.004 5.54095C457.87 4.41304 455.6 3.96187 454.238 4.8642C444.705 10.7294 435.172 16.8201 425.412 22.6853C423.823 23.8132 422.007 24.7155 420.418 25.6179C417.695 27.1969 415.198 28.5504 412.474 30.1295C404.984 34.4156 397.494 38.4761 389.776 41.8598C391.138 40.7319 392.273 39.604 393.635 38.7017C397.267 35.5435 400.898 32.6109 404.53 29.6784C408.843 26.069 413.155 22.4597 417.468 18.8504C419.51 17.0457 421.553 15.241 423.823 13.6619C425.185 12.534 426.547 11.4061 427.909 10.2782C429.27 9.37587 430.632 8.02237 431.994 6.89445C433.356 5.76654 433.356 3.73629 432.675 2.38279C432.221 1.48045 431.313 0.803705 430.405 0.578122C429.27 0.352539 428.816 0.352539 428.59 0.352539C427.909 0.352539 427.228 0.578122 426.774 0.803705C424.958 2.1572 423.369 3.28512 421.553 4.63862C420.872 5.31537 420.191 5.76654 419.51 6.44328C417.468 7.79678 415.425 9.15028 413.155 10.5038C410.658 12.0829 408.162 13.6619 405.665 15.4666C400.217 19.0759 394.543 22.4597 389.096 26.069C387.28 27.1969 385.464 28.3249 383.648 29.4528C380.47 31.2574 377.293 33.0621 374.342 34.8668C370.937 36.897 367.76 38.7017 364.355 40.7319C362.766 41.6343 361.177 42.5366 359.588 43.4389C355.503 45.6948 351.644 47.725 347.332 49.5297C345.743 50.2064 343.927 50.6576 342.338 51.3343L342.565 51.1088C343.246 50.432 343.927 49.7553 344.608 49.0785C346.197 47.4994 347.559 45.9203 349.148 44.3413C352.325 41.1831 355.503 38.2505 358.681 35.0923C361.631 32.1598 364.582 29.4528 367.533 26.7458C368.895 25.6179 370.029 24.2644 371.391 23.1364C373.434 21.3318 375.477 19.3015 377.293 17.4969C378.201 16.5945 379.109 15.6922 379.789 14.5643C380.697 13.4364 381.378 12.3084 382.059 11.1805C383.648 8.9247 381.151 5.54095 378.428 6.44328C376.385 7.12003 374.569 7.79678 372.526 8.69912C371.164 9.37587 369.802 10.2782 368.441 10.9549C366.398 12.0829 364.355 13.2108 362.085 14.3387C358.908 15.9178 355.957 17.4969 352.779 19.3015C350.055 20.655 347.332 22.2341 344.381 23.5876C339.161 26.2946 333.94 29.0016 328.72 31.2574C327.585 31.7086 326.45 32.1598 325.088 32.6109C325.315 32.1598 325.769 31.7086 325.996 31.2574C327.358 29.4528 328.947 27.6481 330.308 25.8434C331.897 24.0388 333.259 22.2341 334.848 20.2039C335.756 19.0759 336.664 17.948 337.572 16.5945C338.48 15.6922 339.161 14.5643 339.841 13.4364C340.976 12.0829 341.657 10.5038 342.338 8.9247C343.019 7.79678 343.019 6.44328 342.338 5.31537C341.657 3.96187 339.841 3.05954 338.253 3.73629C337.118 4.18745 335.983 4.63862 334.848 5.31537C333.94 5.76654 333.259 6.44328 332.351 7.12003C331.443 7.79678 330.308 8.47353 329.401 9.15028C327.585 10.5038 325.769 11.6317 323.953 12.7596C320.094 15.4666 316.463 17.948 312.604 20.4294C308.746 22.9109 304.887 25.3923 301.028 27.8737C297.397 30.1295 293.538 32.3853 289.907 34.6412C287.41 35.9947 284.913 37.3482 282.416 38.7017C279.92 40.0552 277.196 41.6343 274.699 42.7622C274.472 42.7622 274.472 42.7622 274.245 42.9878C274.699 42.311 275.38 41.6343 275.834 40.9575C277.196 39.3784 278.331 37.5738 279.693 35.9947C281.735 33.5133 283.778 31.0319 285.594 28.5504C287.183 26.5202 288.999 24.4899 290.587 22.2341C291.949 20.655 293.084 19.0759 294.446 17.2713C296.262 15.0154 298.078 12.534 299.667 10.0526C300.347 9.15028 300.347 8.02237 300.12 6.89445C299.894 5.99212 299.213 4.8642 298.305 4.41304C297.624 4.18745 297.17 3.96187 296.489 3.73629C295.127 3.5107 293.992 3.73629 292.857 4.41304C291.268 5.31537 290.134 6.44328 288.772 7.5712C283.324 11.4061 277.877 15.241 272.429 19.0759C269.025 21.3318 265.62 23.5876 262.215 25.8434C257.903 28.776 253.363 31.483 248.824 34.19C247.235 35.0923 245.646 35.9947 244.057 36.897C244.965 35.9947 245.873 35.0923 246.781 33.9644C248.824 31.7086 250.866 29.6784 253.136 27.4225C254.498 26.069 255.86 24.7155 256.995 23.362C258.13 22.2341 259.265 20.8806 260.4 19.5271C261.307 18.3992 261.988 17.0457 262.896 15.9178C263.804 14.3387 263.577 12.0829 262.215 10.7294C261.761 10.2782 261.08 9.82703 260.4 9.60145C259.492 9.37587 257.903 9.37587 257.222 10.0526C254.498 12.0829 251.774 14.1131 249.278 16.1434C247.008 17.948 244.511 19.7527 242.014 21.5574C239.972 22.9109 238.156 24.4899 236.113 25.8434C235.205 26.5202 234.297 27.1969 233.389 27.8737C229.758 30.3551 226.126 32.8365 222.494 35.0923C219.998 36.6714 217.501 38.2505 214.777 39.8296C212.961 40.9575 210.918 42.0854 209.103 42.9878C210.238 41.6343 211.372 40.2808 212.734 38.9273C215.004 36.2203 217.501 33.7388 219.998 31.0319C222.04 28.776 224.31 26.5202 226.353 24.2644C227.488 22.9109 228.85 21.7829 229.985 20.4294C232.481 17.7224 235.432 15.6922 237.475 12.534C238.383 10.9549 238.156 8.9247 236.794 7.5712C235.432 6.2177 233.389 5.99212 231.8 6.89445C225.672 10.9549 219.317 14.7899 213.188 18.6248C210.011 20.655 206.833 22.4597 203.655 24.4899C200.024 26.7458 196.619 28.776 192.987 30.8063C190.944 31.9342 189.129 32.8365 187.086 33.9644C185.043 35.0923 183 35.9947 180.731 36.897C179.823 37.3482 178.915 37.5738 178.007 37.7993C176.872 38.2505 175.51 38.4761 174.375 38.7017C174.148 38.7017 174.148 38.7017 173.921 38.7017C174.602 38.0249 175.056 37.3482 175.737 36.6714C176.645 35.5435 177.553 34.4156 178.688 33.2877C180.05 31.7086 181.411 30.1295 182.546 28.5504C184.362 26.2946 186.178 24.2644 187.994 22.0085C189.583 19.9783 191.398 18.1736 193.214 16.1434C194.349 14.7899 195.484 13.4364 196.619 11.8573C197.527 10.5038 198.435 9.15028 199.343 7.79678C200.478 6.2177 200.024 3.96187 198.662 2.83395C197.3 1.48045 195.257 1.25487 193.668 2.1572C192.533 2.83395 191.398 3.5107 190.264 4.18745C189.583 6.2177 188.221 7.12003 186.859 8.24795C185.724 9.15028 184.589 9.82703 183.454 10.7294C180.958 12.534 178.234 14.3387 175.737 16.3689C171.651 19.3015 167.566 22.2341 163.253 25.1667C159.622 27.6481 155.763 30.1295 152.131 32.6109C149.635 34.19 147.365 35.7691 144.868 37.3482C143.506 38.2505 142.144 38.9273 141.01 39.8296C140.102 40.5063 138.967 40.9575 138.059 41.6343C144.414 33.7388 150.997 26.069 157.579 18.3992C158.26 17.4969 158.714 16.5945 158.714 15.4666C158.714 14.5643 158.26 13.4364 157.579 12.7596C155.99 11.1805 153.72 11.4061 152.131 12.7596C150.77 13.8875 149.635 15.241 148.273 16.1434C147.592 16.8201 146.684 17.2713 146.003 17.948C144.641 19.0759 143.506 19.9783 142.144 21.1062C139.194 23.362 136.47 25.6179 133.519 28.0993C129.888 30.8063 126.256 33.5133 122.624 36.2203C119.674 38.4761 116.723 40.5063 113.545 42.5366C111.049 44.1157 108.552 45.4692 106.055 47.0483C103.558 48.6273 101.062 49.9808 98.3378 51.1088C99.6997 49.3041 101.289 47.2738 102.65 45.4692C105.601 41.6343 108.779 38.0249 111.729 34.19C113.999 31.483 116.496 28.776 118.766 26.069C119.901 24.7155 121.263 23.362 122.397 22.0085C123.078 21.1062 123.986 20.2039 124.894 19.5271C125.121 19.3015 125.575 19.0759 125.802 18.8504C126.71 18.1736 127.391 17.4969 128.299 16.8201C129.207 16.1434 129.888 15.241 130.569 14.5643C131.023 14.1131 131.476 13.4364 131.476 12.7596C131.703 11.8573 131.703 10.7294 131.023 9.82703C130.569 8.9247 129.661 8.24795 128.753 8.02237C127.845 7.79678 126.483 7.79678 125.802 8.47353C125.121 9.15028 124.213 9.60145 123.532 10.0526C122.397 10.9549 121.489 11.6317 120.582 12.534C119.901 13.2108 119.22 13.8875 118.539 14.7899C117.177 15.9178 115.815 16.8201 114.68 17.948C111.956 19.9783 109.233 22.0085 106.509 24.0388C104.239 25.6179 101.969 27.1969 99.6997 28.776C96.749 30.8063 94.0253 32.8365 91.0746 34.6412C87.4429 37.1226 83.8113 39.3784 79.9527 41.6343C78.1369 42.7622 76.321 43.6645 74.2783 44.7924C72.2355 45.6948 70.4196 46.8227 68.3769 47.725C67.242 48.1762 66.1071 48.4018 65.1992 48.8529C65.4261 48.6273 65.6531 48.4018 65.6531 47.9506C67.242 45.9203 68.6038 44.1157 70.1927 42.0854C71.3276 40.5063 72.4624 38.9273 73.8243 37.3482C76.321 34.19 78.5908 31.2574 81.0876 28.0993C82.6764 26.069 84.4922 23.8132 86.0811 21.7829C86.989 20.655 87.8969 19.5271 88.8048 18.3992C90.1667 16.5945 91.5285 14.7899 92.6634 12.7596C93.5713 11.4061 93.1174 9.37587 91.9825 8.24795C90.8476 7.12003 88.8048 6.66887 87.4429 7.5712C86.0811 8.47353 84.9462 9.15028 83.8113 10.2782C83.1304 10.9549 82.4494 11.4061 81.5415 12.0829C80.4066 12.9852 79.0448 14.1131 77.9099 15.0154C75.1862 17.0457 72.4624 19.3015 69.7387 21.3318C66.3341 23.8132 63.1564 26.2946 59.7517 28.776C57.028 30.8063 54.0773 32.8365 51.3536 34.8668C50.4457 35.5435 49.3108 36.2203 48.4029 36.897C49.3108 35.7691 50.2187 34.6412 50.8996 33.5133C52.4885 31.2574 54.3043 29.0016 55.8931 26.7458C56.801 25.3923 57.9359 24.0388 58.8438 22.6853C59.9787 21.3318 60.8866 19.7527 61.7945 18.1736C62.9294 16.3689 63.6103 14.3387 64.2913 12.534C64.5182 11.8573 64.5182 11.1805 64.2913 10.2782C64.0643 9.60145 63.8373 8.9247 63.1564 8.47353C61.7945 7.12003 59.7517 6.89445 58.1629 7.79678C57.028 8.47353 55.6661 9.15028 54.5312 10.0526C53.1694 11.1805 51.8075 12.3084 50.4457 13.4364C49.3108 14.3387 48.4029 15.241 47.268 16.1434C45.4522 17.4969 43.8633 19.0759 42.0475 20.4294C35.9191 25.3923 30.0177 30.5807 23.8893 35.3179C21.8465 36.897 20.0307 38.2505 17.9879 39.8296C17.08 40.5063 16.1721 41.1831 15.0372 41.8598C15.9451 40.5063 16.6261 39.1528 17.534 37.7993C19.1228 35.0923 20.7117 32.3853 22.5275 29.6784C24.1163 27.1969 25.4782 24.7155 27.067 22.2341C27.9749 20.8806 28.6559 19.5271 29.5638 17.948C30.4717 16.3689 31.6066 15.0154 32.2875 13.2108C32.5145 12.3084 32.9684 11.4061 32.9684 10.5038C32.9684 9.82703 32.7414 9.15028 32.7414 8.47353C32.5145 7.34562 31.3796 6.2177 30.2447 5.99212C29.1098 5.76654 27.521 5.99212 26.6131 6.89445C23.2084 10.7294 19.8038 14.7899 16.3991 18.6248C16.3991 17.7224 15.9451 17.7224 15.7182 17.7224C14.8103 17.7224 13.6754 18.1736 13.2214 18.8504C11.1786 21.3318 9.13583 23.5876 7.32001 26.069C5.05024 29.0016 2.78047 32.1598 0.510699 35.0923C-0.170233 35.9947 -0.170233 37.7993 0.510699 38.7017C1.19163 39.8296 2.32652 40.5063 3.68838 40.5063C4.14233 40.5063 4.82326 40.5063 5.27722 40.2808C5.95815 40.0552 6.63908 39.8296 7.09303 39.604C6.4121 40.7319 5.50419 41.6343 5.05024 42.9878C4.59629 43.8901 4.36931 44.7924 4.14233 45.6948C3.91535 46.8227 3.91535 47.9506 3.91535 48.8529C3.91535 51.5599 6.63908 53.5902 9.36281 52.9134C11.4056 52.2367 13.4484 51.7855 15.4912 50.8832C17.08 50.432 18.6689 49.3041 20.4847 48.1762Z" fill="#854FED"/>
</svg>
